<svg width="22" height="16" viewBox="0 0 22 16" fill="none" xmlns="http://www.w3.org/2000/svg">
<path d="M11.5755 1.53251L13.9986 6.91477H8.00136L10.4245 1.53251L10.4246 1.53254L10.4262 1.52865C10.4714 1.41574 10.4699 1.28951 10.4219 1.17774C10.3739 1.06598 10.2834 0.977878 10.1704 0.93276C10.0574 0.887645 9.93111 0.889181 9.81925 0.937035C9.70794 0.984652 9.61997 1.07427 9.57452 1.18638L7.04814 6.91477H1.33333C1.21846 6.91477 1.10826 6.96032 1.02698 7.04145C0.945699 7.12259 0.9 7.23268 0.9 7.3475C0.9 7.46233 0.945699 7.57242 1.02698 7.65355C1.10826 7.73469 1.21846 7.78023 1.33333 7.78023H1.71316L4.90741 15.4972C4.90744 15.4973 4.90747 15.4974 4.9075 15.4975C4.9421 15.5821 5.00265 15.6536 5.08043 15.7018L5.13306 15.6167L5.08043 15.7018C5.15716 15.7492 5.24679 15.7716 5.33678 15.7658L16.6667 15.7658L16.6672 15.7658C16.7527 15.7653 16.8362 15.7396 16.9071 15.6919C16.9779 15.6443 17.0331 15.5768 17.0657 15.4979C17.0657 15.4978 17.0658 15.4976 17.0658 15.4975L20.2866 7.78023H20.6667C20.7815 7.78023 20.8917 7.73469 20.973 7.65356C21.0543 7.57241 21.1 7.46233 21.1 7.3475C21.1 7.23268 21.0543 7.12259 20.973 7.04145C20.8917 6.96032 20.7815 6.91477 20.6667 6.91477H14.9519L12.4255 1.18641C12.4031 1.13116 12.3701 1.0808 12.3284 1.03816C12.2863 0.995091 12.2361 0.960731 12.1808 0.937035C12.1254 0.913338 12.0658 0.900768 12.0056 0.900034C11.9453 0.899301 11.8855 0.91042 11.8296 0.932761C11.7736 0.955101 11.7226 0.988229 11.6795 1.03026C11.6363 1.07229 11.6019 1.1224 11.5781 1.17774C11.5544 1.23308 11.5418 1.29256 11.541 1.35277C11.5403 1.41298 11.5514 1.47275 11.5738 1.52865L11.5738 1.52868L11.5755 1.53251ZM19.3499 7.78023L16.38 14.9003H5.61997L2.65006 7.78023H19.3499Z" fill="white" stroke="white" stroke-width="0.2"/>
</svg>
