<svg width="40" height="32" viewBox="0 0 40 32" fill="none" xmlns="http://www.w3.org/2000/svg">
<g filter="url(#filter0_d)">
<path d="M34.5 10.0222H25.83L22 1.3379C21.9737 1.27236 21.9348 1.21263 21.8854 1.16211C21.836 1.11158 21.7771 1.07127 21.7121 1.04346C21.6471 1.01566 21.5773 1.0009 21.5066 1.00004C21.4359 0.99918 21.3657 1.01223 21.3 1.03845C21.2343 1.06466 21.1745 1.10353 21.1239 1.15284C21.0733 1.20214 21.0329 1.26091 21.005 1.32579C20.9772 1.39068 20.9624 1.4604 20.9615 1.53099C20.9607 1.60157 20.9737 1.67164 21 1.73718L24.73 10.0222H15.27L19 1.73718C19.053 1.60481 19.0512 1.45683 18.995 1.32579C18.9387 1.19476 18.8326 1.09139 18.7 1.03845C18.5674 0.9855 18.4191 0.987304 18.2879 1.04346C18.1566 1.09962 18.053 1.20554 18 1.3379L14.17 10.0222H5.5C5.36739 10.0222 5.24021 10.0747 5.14645 10.1683C5.05268 10.2619 5 10.3889 5 10.5213C5 10.6536 5.05268 10.7806 5.14645 10.8742C5.24021 10.9678 5.36739 11.0204 5.5 11.0204H6.17L11 22.6892C11.0399 22.7869 11.1097 22.8695 11.1996 22.9251C11.2894 22.9807 11.3946 23.0064 11.5 22.9986H28.5C28.5987 22.9981 28.6951 22.9685 28.7769 22.9134C28.8588 22.8584 28.9225 22.7803 28.96 22.6892L33.83 11.0204H34.5C34.6326 11.0204 34.7598 10.9678 34.8536 10.8742C34.9473 10.7806 35 10.6536 35 10.5213C35 10.3889 34.9473 10.2619 34.8536 10.1683C34.7598 10.0747 34.6326 10.0222 34.5 10.0222ZM28.17 22.0004H11.83L7.25 11.0204H32.75L28.17 22.0004Z" fill="white"/>
<path d="M24.5753 9.92216L20.9088 1.77823L20.9071 1.77441L20.9072 1.77438C20.876 1.69663 20.8605 1.61351 20.8615 1.52977C20.8626 1.44602 20.8801 1.36331 20.9131 1.28634C20.9462 1.20938 20.9941 1.13967 21.0541 1.08121C21.1141 1.02274 21.1851 0.976656 21.2629 0.945576C21.3408 0.914496 21.424 0.899028 21.5078 0.900048C21.5916 0.901068 21.6744 0.918557 21.7515 0.951522C21.8285 0.984488 21.8983 1.03229 21.9569 1.0922C22.0151 1.15168 22.061 1.22195 22.0922 1.29905L25.8952 9.92216H34.5C34.6591 9.92216 34.8117 9.98523 34.9242 10.0976C35.0367 10.2099 35.1 10.3623 35.1 10.5213C35.1 10.6802 35.0367 10.8326 34.9242 10.9449C34.8117 11.0573 34.6591 11.1204 34.5 11.1204H33.8966L29.0525 22.7273C29.0524 22.7274 29.0524 22.7275 29.0523 22.7277C29.0072 22.8369 28.9309 22.9304 28.8327 22.9964C28.7345 23.0625 28.6189 23.098 28.5005 23.0986L28.5 23.0986H11.5035C11.3784 23.1071 11.2537 23.0762 11.147 23.0101C11.0393 22.9435 10.9555 22.8445 10.9076 22.7274L10.9076 22.7274L11 22.6892L10.9074 22.727L24.5753 9.92216ZM24.5753 9.92216H15.4247L19.0912 1.77823L19.0913 1.77827L19.0928 1.77438C19.1558 1.61735 19.1536 1.44179 19.0869 1.28634C19.0201 1.1309 18.8943 1.00834 18.7371 0.945576C18.5799 0.882811 18.4042 0.884949 18.2485 0.951522C18.0935 1.01786 17.971 1.1428 17.9078 1.29905L14.1048 9.92216H5.5C5.34093 9.92216 5.18834 9.98523 5.0758 10.0976C4.96326 10.2099 4.9 10.3623 4.9 10.5213C4.9 10.6802 4.96326 10.8326 5.0758 10.9449C5.18834 11.0573 5.34093 11.1204 5.5 11.1204H6.10316L24.5753 9.92216ZM32.5999 11.1204L28.1034 21.9004H11.8966L7.40006 11.1204H32.5999Z" stroke="white" stroke-width="0.2"/>
</g>
<defs>
<filter id="filter0_d" x="0.799988" y="0.799988" width="38.4" height="30.4" filterUnits="userSpaceOnUse" color-interpolation-filters="sRGB">
<feFlood flood-opacity="0" result="BackgroundImageFix"/>
<feColorMatrix in="SourceAlpha" type="matrix" values="0 0 0 0 0 0 0 0 0 0 0 0 0 0 0 0 0 0 127 0"/>
<feOffset dy="4"/>
<feGaussianBlur stdDeviation="2"/>
<feColorMatrix type="matrix" values="0 0 0 0 0 0 0 0 0 0 0 0 0 0 0 0 0 0 0.25 0"/>
<feBlend mode="normal" in2="BackgroundImageFix" result="effect1_dropShadow"/>
<feBlend mode="normal" in="SourceGraphic" in2="effect1_dropShadow" result="shape"/>
</filter>
</defs>
</svg>
